<?xml version="1.0" encoding="UTF-8" standalone="no"?>
<svg
   xmlns:dc="http://purl.org/dc/elements/1.1/"
   xmlns:cc="http://creativecommons.org/ns#"
   xmlns:rdf="http://www.w3.org/1999/02/22-rdf-syntax-ns#"
   xmlns:svg="http://www.w3.org/2000/svg"
   xmlns="http://www.w3.org/2000/svg"
   viewBox="0 0 765.35431 765.35431"
   id="svg4"
   height="765.35431"
   width="765.35431"
   version="1.1">
  <metadata
     id="metadata10">
    <rdf:RDF>
      <cc:Work
         rdf:about="">
        <dc:format>image/svg+xml</dc:format>
        <dc:type
           rdf:resource="http://purl.org/dc/dcmitype/StillImage" />
      </cc:Work>
    </rdf:RDF>
  </metadata>
  <defs
     id="defs8" />
  <path
     id="path2"
     style="fill:#ffffff;fill-rule:evenodd"
     d="m 352.3691,291.2981 2.1603,2.9911 -17.4892,12.6318 8.1715,10.5369 40.8291,45.4743 18.5808,2.6892 9.4807,7.7763 c 3.4515,16.5784 6.6861,33.2637 9.9542,50.1213 l 1.2112,6.243 c -7.4259,4.5017 -14.637,8.434 -21.6935,11.8741 l -41.7376,-59.1452 1.2225,-7.579 -18.8254,-30.3162 -7.3344,-0.489 -16.2932,-25.3159 -14.8541,10.7283 -2.16,-2.9912 z m 91.9369,290.365 c 20.2825,0 36.7305,-16.4481 36.7305,-36.7305 0,-20.2825 -16.448,-36.7305 -36.7305,-36.7305 -20.2824,0 -36.7304,16.448 -36.7304,36.7305 0,20.2824 16.448,36.7305 36.7304,36.7305 z m 28.9772,-7.7531 c -7.4168,7.4169 -17.6624,12.005 -28.9772,12.005 -11.3147,0 -21.5603,-4.5881 -28.9771,-12.005 -7.4169,-7.4168 -12.0053,-17.6627 -12.0053,-28.9774 0,-11.3148 4.5884,-21.5606 12.0053,-28.9775 7.4168,-7.4168 17.6624,-12.005 28.9771,-12.005 11.3148,0 21.5604,4.5882 28.9772,12.005 7.4169,7.4169 12.0053,17.6627 12.0053,28.9775 0,11.3147 -4.5884,21.5606 -12.0053,28.9774 z M 82.6356,590.3402 c 17.4362,0 31.5762,-14.1401 31.5762,-31.5763 0,-17.4362 -14.14,-31.5762 -31.5762,-31.5762 -17.4362,0 -31.5763,14.14 -31.5763,31.5762 0,17.4362 14.1401,31.5763 31.5763,31.5763 z m 25.3329,-6.2433 c -6.4839,6.4837 -15.4417,10.4953 -25.3329,10.4953 -9.8915,0 -18.849,-4.0116 -25.333,-10.4953 -6.4836,-6.484 -10.4952,-15.4415 -10.4952,-25.333 0,-9.8912 4.0116,-18.8489 10.4952,-25.3329 6.484,-6.4837 15.4415,-10.4953 25.333,-10.4953 9.8912,0 18.849,4.0116 25.3329,10.4953 6.4837,6.484 10.4953,15.4417 10.4953,25.3329 0,9.8915 -4.0116,18.849 -10.4953,25.333 z m 336.3375,31.3514 c 38.9384,0 70.5155,-31.5773 70.5155,-70.5157 0,-38.9384 -31.5771,-70.5155 -70.5155,-70.5155 -38.9383,0 -70.5157,31.5771 -70.5157,70.5155 0,38.9384 31.5774,70.5157 70.5157,70.5157 z m -361.6704,2.4809 c 32.6707,0 59.1653,-26.4946 59.1653,-59.1653 0,-32.6704 -26.4946,-59.165 -59.1653,-59.165 -32.6704,0 -59.165,26.4946 -59.165,59.165 0,32.6707 26.4946,59.1653 59.165,59.1653 z M 446.2787,428.0783 482.442,408.884 V 181.3785 h 45.9929 v 144.8243 h 20.5521 v 237.801 l 209.5174,2.9106 6.8496,5.3819 c -82.4765,1.8119 -164.8751,4.7596 -247.3803,5.4813 4.4813,-10.0329 6.9746,-21.1484 6.9746,-32.845 0,-22.2642 -9.0286,-42.425 -23.6228,-57.0195 -14.5944,-14.5942 -34.7553,-23.6228 -57.0195,-23.6228 -22.2644,0 -42.425,9.0286 -57.0194,23.6228 -14.5942,14.5945 -23.6228,34.7553 -23.6228,57.0195 0,11.8241 2.5463,23.055 7.1206,33.1738 -70.306,-0.1108 -144.9487,-0.4283 -212.7203,-0.4283 l -8.5677,-0.6613 c 1.5848,-5.8159 2.431,-11.9356 2.431,-18.2529 0,-19.1304 -7.7579,-36.4535 -20.2978,-48.9937 -12.5402,-12.5402 -29.8633,-20.298 -48.994,-20.298 -19.1305,0 -36.4536,7.7578 -48.9937,20.298 -12.5402,12.5402 -20.2981,29.8633 -20.2981,48.9937 0,1.9503 0.0822,3.881 0.2404,5.7901 C 6.2501,560.6084 0.523,554.8606 0.523,546.1203 c 0,-15.7482 0,-36.3714 0,-50.8774 2.2827,-9.4561 4.5652,-11.3337 6.8474,-20.7901 L 0,472.4612 c 0.7336,-11.0835 1.4669,-22.167 2.2003,-33.2499 6.5199,-0.7336 13.0393,-1.4669 19.5587,-2.2005 4.3693,-10.023 8.7384,-20.046 13.1077,-30.0685 -9.1647,-2.1251 -18.3291,-4.2503 -27.4941,-6.3754 7.6247,-30.8061 10.1999,-31.5247 40.5825,-31.5247 0.3263,0 0.6528,0 0.9788,0 0.3263,0 0.6528,0 0.9791,0 0.3263,0 0.6528,0 0.9788,0 0.3263,0 0.6528,0 0.9788,0 0.3263,0 0.6528,0 0.9791,0 0.3263,0 0.6528,0 0.9788,0 0.3263,0 0.6528,0 0.9788,0 0.3263,0 0.6528,0 0.9791,0 0.3263,0 0.6528,0 0.9788,0 0.1216,0 0.2429,0 0.3645,0 17.8251,0 35.6502,0 53.4751,0 1.7538,-19.5417 4.0345,-39.0118 6.3618,-58.4988 6.7011,-50.2594 14.3583,-100.154 22.5056,-150.2022 -2.2833,-0.163 -4.5663,-0.3263 -6.8493,-0.4893 0.326,-4.1423 0.6519,-8.2851 0.9785,-12.4276 60.6217,4.4149 121.244,8.8304 181.866,13.244 48.636,3.5407 70.2803,47.6543 83.0886,88.5376 18.5431,59.188 33.2045,118.679 47.7227,178.8724 z m -283.8113,-6.4735 c 18.5392,15.2946 36.2064,30.6326 54.2353,45.197 86.0669,1.5511 138.7599,11.3145 213.3887,-34.9226 -9.8628,-50.7568 -19.0168,-99.8521 -34.2479,-149.2236 -3.2924,-10.264 -6.5854,-20.5288 -9.877,-30.7925 -12.0447,-37.5568 -24.6986,-77.7645 -70.6825,-80.6205 -53.2219,-3.3066 -106.444,-6.6155 -159.6662,-9.9229 -7.3335,68.1483 -45.561,207.8745 6.8496,260.2851 z m -12.8602,-27.9522 14.2671,-11.1313 c 4.8081,1.6299 9.6159,3.2598 14.4243,4.8897 -0.8149,-6.0307 -1.6299,-12.0611 -2.4446,-18.0918 -3.7491,-26.8934 -7.4979,-53.7866 -11.2464,-80.68 3.0458,-2.2258 6.0919,-4.4515 9.1378,-6.6773 4.625,-3.3786 4.9977,-1.1429 8.2646,2.2303 3.4079,3.5198 6.8162,7.0396 10.2243,10.5591 4.6874,2.2238 9.3751,4.4475 14.0627,6.671 6.1347,2.9101 5.2455,3.8784 6.3162,10.6325 1.4201,8.9629 2.4894,10.8062 -2.2958,18.3997 -2.3604,3.746 -4.7208,7.492 -7.0812,11.2379 0.5703,5.9491 1.8737,18.4196 2.4443,24.3686 0,0 49.8489,-0.0776 66.2054,-0.1029 14.1605,-0.0212 9.8297,9.0108 9.8297,21.4529 -6.5197,3.4226 -13.0394,6.8454 -19.5588,10.2682 6.6013,0 13.2029,0 19.8048,0 4.3183,7.6604 8.6372,15.321 12.9561,22.9817 l -2.3633,43.719 c -13.0476,0 -26.6286,-0.4516 -41.1086,-0.9338 -10.4876,-0.3492 -21.4429,-0.7143 -33.1696,-0.9391 -10.3581,-8.3911 -20.1693,-16.6581 -30.0886,-25.016 -7.6195,-6.4202 -15.3009,-12.892 -22.678,-18.9819 -6.8066,-6.8151 -12.007,-15.234 -15.9024,-24.8565 z" />
</svg>
