<?xml version="1.0" encoding="UTF-8" standalone="no"?>
<svg
   xmlns:dc="http://purl.org/dc/elements/1.1/"
   xmlns:cc="http://creativecommons.org/ns#"
   xmlns:rdf="http://www.w3.org/1999/02/22-rdf-syntax-ns#"
   xmlns:svg="http://www.w3.org/2000/svg"
   xmlns="http://www.w3.org/2000/svg"
   viewBox="0 0 765.35431 765.35431"
   id="svg14"
   height="765.35431"
   width="765.35431"
   version="1.1">
  <metadata
     id="metadata20">
    <rdf:RDF>
      <cc:Work
         rdf:about="">
        <dc:format>image/svg+xml</dc:format>
        <dc:type
           rdf:resource="http://purl.org/dc/dcmitype/StillImage" />
      </cc:Work>
    </rdf:RDF>
  </metadata>
  <defs
     id="defs18" />
  <path
     id="path2"
     style="fill:#ffffff;fill-rule:evenodd"
     d="M 182.27,349.9617 A 31.5763,31.5763 0 0 1 213.8462,381.5379 31.5763,31.5763 0 1 1 182.27,349.9617 Z" />
  <path
     id="path4"
     style="fill:#ffffff;fill-rule:evenodd"
     d="M 182.27,223.6567 A 31.5763,31.5763 0 0 1 213.8462,255.2329 31.5763,31.5763 0 1 1 182.27,223.6567 Z" />
  <path
     id="path6"
     style="fill:#ffffff;fill-rule:evenodd"
     d="m 239.7419,237.532 v 35.4019 H 622.3374 V 237.532 Z" />
  <path
     id="path8"
     style="fill:#ffffff;fill-rule:evenodd"
     d="M 182.27,476.2667 A 31.5763,31.5763 0 0 1 213.8462,507.8429 31.5763,31.5763 0 1 1 182.27,476.2667 Z" />
  <path
     id="path10"
     style="fill:#ffffff;fill-rule:evenodd"
     d="m 239.7419,364.9759 v 35.4019 h 382.5955 v -35.4019 z" />
  <path
     id="path12"
     style="fill:#ffffff;fill-rule:evenodd"
     d="m 239.7419,490.142 v 35.4019 H 622.3374 V 490.142 Z" />
</svg>
