<?xml version="1.0" encoding="UTF-8" standalone="no"?>
<svg
   xmlns:dc="http://purl.org/dc/elements/1.1/"
   xmlns:cc="http://creativecommons.org/ns#"
   xmlns:rdf="http://www.w3.org/1999/02/22-rdf-syntax-ns#"
   xmlns:svg="http://www.w3.org/2000/svg"
   xmlns="http://www.w3.org/2000/svg"
   viewBox="0 0 765.35431 765.35431"
   id="svg4"
   height="765.35431"
   width="765.35431"
   version="1.1">
  <metadata
     id="metadata10">
    <rdf:RDF>
      <cc:Work
         rdf:about="">
        <dc:format>image/svg+xml</dc:format>
        <dc:type
           rdf:resource="http://purl.org/dc/dcmitype/StillImage" />
      </cc:Work>
    </rdf:RDF>
  </metadata>
  <defs
     id="defs8" />
  <path
     id="path2"
     style="fill:#ffffff;fill-rule:evenodd"
     d="m 156.219,373.0618 -29.1668,-10.5001 c 11.2893,-47.6107 17.8883,-86.8638 17.2452,-135.7356 1.356,-2.399 2.7121,-4.7982 4.068,-7.1966 3.2286,-5.7115 2.8825,-6.177 1.7248,-12.5963 -3.5356,-19.6042 -6.8385,-52.7154 -17.6604,-58.6761 -4.0289,-2.2189 -9.0998,-0.6755 -15.6135,6.7292 -9.5601,10.8672 -5.4541,15.3839 -1.9678,28.7314 3.6975,14.1506 7.3942,28.3017 11.0911,42.4522 -1.3949,49.5488 -10.8309,89.0861 -24.4769,136.8482 -0.3478,1.2166 -0.6956,2.4338 -1.0431,3.6508 -4.1669,14.5893 3.6944,22.9577 19.4009,15.8193 1.8541,1.1126 3.7085,2.2252 5.5627,3.3378 l -0.504,7.2257 c 3.6524,0.0502 7.4049,0.1058 11.1577,0.1613 6.2229,0.0922 12.4481,0.1849 18.3271,0.2486 l 0.2869,0.003 c 0.5182,-6.8403 1.0403,-13.6752 1.5681,-20.503 z m 108.2424,-44.2693 c -25.1116,-5.9085 -53.5632,-15.8343 -79.1082,-17.8545 -12.0807,-0.9565 -19.8776,-0.1367 -21.4075,18.5306 -5.7053,69.5911 -10.5029,139.2545 -15.7544,208.8816 0,21.2327 0,42.4656 0,63.6982 15.3017,4.0652 30.6037,8.1298 45.9054,12.1949 9.2032,2.4444 19.4298,4.1619 25.7607,-4.1093 4.7602,-6.2193 9.521,-12.4385 14.2812,-18.6577 10.1075,0 20.2156,0 30.3228,0 0,-87.5613 0,-175.1227 0,-262.6838 z M 79.4806,478.2733 c 0,36.7158 0,73.4315 0,110.1473 2.3803,13.3237 10.0012,15.7717 22.2517,19.1905 2.2249,-1.8544 4.4501,-3.7085 6.6756,-5.5627 h 35.5314 v -63.6982 l 0.0168,-0.3155 0.1865,-2.4783 z m 606.2417,117.455 v 9.1786 l -11.1268,5.0068 -30.0399,8.9005 h -88.452 l -49.5085,-9.4569 H 225.7943 l 10.432,-13.629 c 149.8317,0 299.6643,0 449.496,0 z M 103.4005,397.2104 C 91.944,410.0987 86.3107,418.6661 79.4809,434.482 v 39.3103 l 2.2227,1.9687 62.7548,55.5939 c 1.6049,-21.3894 3.1271,-42.1668 4.6482,-62.9399 1.7255,-23.5593 3.4509,-47.1189 5.2243,-70.6181 -16.8665,-0.1837 -35.8059,-0.5865 -50.9304,-0.5865 z" />
</svg>
